<svg id="_x31__x2C_5" enable-background="new 0 0 24 24" height="512" viewBox="0 0 24 24" width="512" xmlns="http://www.w3.org/2000/svg"><g id="XMLID_1_"><path d="m20.5 17c0-.27-.22-.5-.5-.5s-.5.23-.5.5.22.5.5.5.5-.23.5-.5zm1.5 0c0 1.1-.9 2-2 2s-2-.9-2-2 .9-2 2-2 2 .9 2 2z"/><path d="m22.5 23.25v-.5c0-.69-.56-1.25-1.25-1.25h-2.5c-.69 0-1.25.56-1.25 1.25v.5c0 .41-.34.75-.75.75s-.75-.34-.75-.75v-.5c0-1.52 1.23-2.75 2.75-2.75h2.5c1.52 0 2.75 1.23 2.75 2.75v.5c0 .41-.34.75-.75.75s-.75-.34-.75-.75z"/><path d="m17.25 7.5c.41 0 .75.34.75.75s-.34.75-.75.75h-.75v-1.5z"/><path d="m17.25 9c.41 0 .75-.34.75-.75v5c0 .41-.34.75-.75.75s-.75-.34-.75-.75v-4.25z"/><path d="m1.5 7.5h15v1.5h-15z"/><path d="m15.25 15c.41 0 .75.34.75.75s-.34.75-.75.75h-13.75v-1.5z"/><circle cx="13" cy="5" r="1"/><circle cx="9" cy="5" r="1"/><circle cx="5" cy="5" r="1"/><path d="m1.5 15v1.5h-.25c-.41 0-.75-.34-.75-.75s.34-.75.75-.75z"/><path d="m1.5 7.5v1.5h-.75c-.41 0-.75-.34-.75-.75s.34-.75.75-.75z"/><path d="m15.25 0c1.52 0 2.75 1.23 2.75 2.75v5.5c0-.41-.34-.75-.75-.75h-.75v-4.75c0-.69-.56-1.25-1.25-1.25h-12.5c-.69 0-1.25.56-1.25 1.25v4.75h-.75c-.41 0-.75.34-.75.75v-5.5c0-1.52 1.23-2.75 2.75-2.75z"/><path d="m13.25 22.5c.41 0 .75.34.75.75s-.34.75-.75.75h-10.5c-1.52 0-2.75-1.23-2.75-2.75v-13c0 .41.34.75.75.75h.75v6h-.25c-.41 0-.75.34-.75.75s.34.75.75.75h.25v4.75c0 .69.56 1.25 1.25 1.25z"/></g></svg>