<?xml version="1.0" encoding="iso-8859-1"?>
<!-- Generator: Adobe Illustrator 19.0.0, SVG Export Plug-In . SVG Version: 6.00 Build 0)  -->
<svg version="1.1" id="Capa_1" xmlns="http://www.w3.org/2000/svg" xmlns:xlink="http://www.w3.org/1999/xlink" x="0px" y="0px"
	 viewBox="0 0 512 512" style="enable-background:new 0 0 512 512;" xml:space="preserve">
<g>
	<g>
		<g>
			<path d="M226,352H20c-11.046,0-20,8.954-20,20v120c0,11.046,8.954,20,20,20h206c11.046,0,20-8.954,20-20V372
				C246,360.954,237.046,352,226,352z M206,472H40v-80h166V472z"/>
			<path d="M226,0H20C8.954,0,0,8.954,0,20v292c0,11.046,8.954,20,20,20h206c11.046,0,20-8.954,20-20V20C246,8.954,237.046,0,226,0z
				 M206,292H40V40h166V292z"/>
			<path d="M492,0H286c-11.046,0-20,8.954-20,20v120c0,11.046,8.954,20,20,20h206c11.046,0,20-8.954,20-20V20
				C512,8.954,503.046,0,492,0z M472,120H306V40h166V120z"/>
			<path d="M492,180H286c-11.046,0-20,8.954-20,20v292c0,11.046,8.954,20,20,20h206c11.046,0,20-8.954,20-20V200
				C512,188.954,503.046,180,492,180z M472,472H306V220h166V472z"/>
		</g>
	</g>
</g>
<g>
</g>
<g>
</g>
<g>
</g>
<g>
</g>
<g>
</g>
<g>
</g>
<g>
</g>
<g>
</g>
<g>
</g>
<g>
</g>
<g>
</g>
<g>
</g>
<g>
</g>
<g>
</g>
<g>
</g>
</svg>
